<svg version="1" xmlns="http://www.w3.org/2000/svg" width="336" height="336" viewBox="0 0 252.000000 252.000000"><path d="M120.5 18.9c-2.2 1-4.8 2.7-5.8 3.8-1 1.1-6.1 12.3-11.4 24.9C92.3 73.9 91.1 79 95.2 85c3.4 5.1 10.1 8.3 15.8 7.5 6.4-.9 12.5-4.8 15.3-9.8 1.4-2.3 4.4-9.2 6.8-15.4l4.4-11.2 51-.3 51-.3 3.8-2.4c10.5-6.5 10.7-23.8.5-31.4-6.3-4.6-7.1-4.7-64.7-4.7-50.8 0-54.9.2-58.6 1.9zM51.7 106.5c-15.7 5.5-17.1 28.1-2.2 36.3 2.7 1.5 9.6 1.8 62.2 2.2l59.2.5-9.7 24.7-9.6 24.8H84.3c-73.6 0-71.4-.2-77.6 5.8-8 7.6-8.5 19-1.1 27.2 6.7 7.4 2.8 7.1 88.1 6.8 75.3-.3 76.2-.3 79-2.4 2.3-1.7 6.3-10.7 23.2-52.5 19.7-49 22.2-56.4 20.7-62.3-.9-3.7-5.6-8.7-10.1-10.7-3.8-1.7-8.3-1.9-77.5-1.8-59.7 0-74.2.2-77.3 1.4z"/></svg>